<svg xmlns="http://www.w3.org/2000/svg" xmlns:xlink="http://www.w3.org/1999/xlink" version="1.1" x="0px" y="0px" viewBox="0 0 512 640" enable-background="new 0 0 512 512" xml:space="preserve"><g><path fill="#1a3445" d="M363.1,238.6c-2.6-77.3-30.9-153.2-82.8-210.1L256,2l-24.2,26.6c-52,56.9-80.2,132.8-82.8,210.1   C117.2,268.3,99,309.8,99,353c0,37,13.2,72.9,37.1,101.2l20.3,24l-5.8-30.9c-1.3-6.8-1.9-13.5-1.9-20c0-22.5,7.1-44,20.1-62.2   c4,11.1,8.4,22.1,13.7,32.8l2.3,4.6h142.7l2.3-4.6c5.3-10.7,9.7-21.7,13.7-32.8c13,18.1,20.1,39.7,20.1,62.2c0,6.5-0.7,13.2-1.9,20   l-5.8,30.8l20.2-23.9C399.8,425.9,413,390,413,353C413,309.8,394.8,268.3,363.1,238.6z M244,39.7l12-13.2l12,13.2   c15.9,17.4,29.4,36.6,40.5,57.2H203.4C214.6,76.3,228.1,57.1,244,39.7z M162.3,346.5c-17.8,20.6-28.2,46.1-30,73   c-10.9-20.3-16.8-43.2-16.8-66.4c0-33.1,11.9-65.1,33.1-90.3c0.2,4.7,0.6,9.4,1,14.1c0.1,0.8,0.1,1.6,0.2,2.3   C151.7,302.1,155.8,324.7,162.3,346.5z M317,386.1H195c-6.5-13.8-11.9-28.1-16.3-42.6c-0.3-1-0.6-2-0.9-3   c-6.3-21.7-10.3-43.9-11.9-66.2c0-0.3-0.1-0.7-0.1-1c-0.5-7.5-0.8-15.1-0.8-22.6c0-0.1,0-0.2,0-0.3c0-47.4,10.3-94.4,30.1-136.9   h121.8c23.1,49.3,33.2,104.9,29.3,159.9c0,0.3,0,0.5-0.1,0.8c-1.6,22.4-5.6,44.7-11.9,66.4c-0.3,1-0.6,2-0.9,3   C329,358,323.6,372.2,317,386.1z M349.7,346.5c6.5-21.8,10.6-44.3,12.5-67.3c0.1-0.8,0.1-1.6,0.2-2.3c0.4-4.7,0.8-9.4,1-14.1   c21.2,25.2,33.1,57.2,33.1,90.3c0,23.3-5.8,46.1-16.8,66.5C378,392.6,367.5,367,349.7,346.5z"/><rect x="247.7" y="419.1" fill="#1a3445" width="16.5" height="49.6"/><rect x="297.3" y="460.4" fill="#1a3445" width="16.5" height="49.6"/><rect x="198.2" y="460.4" fill="#1a3445" width="16.5" height="49.6"/><rect x="248.1" y="320" fill="#1a3445" width="16.2" height="16.5"/><rect x="281" y="320" fill="#1a3445" width="16.2" height="16.5"/><rect x="214.9" y="320" fill="#1a3445" width="16.2" height="16.5"/><path fill="#1a3445" d="M256,163c-31.9,0-57.8,25.9-57.8,57.8s25.9,57.8,57.8,57.8c31.9,0,57.8-25.9,57.8-57.8S287.9,163,256,163z    M256,262.1c-22.8,0-41.3-18.5-41.3-41.3s18.5-41.3,41.3-41.3c22.8,0,41.3,18.5,41.3,41.3S278.8,262.1,256,262.1z"/></g></svg>