<svg xmlns="http://www.w3.org/2000/svg" xmlns:xlink="http://www.w3.org/1999/xlink" version="1.1" x="0px" y="0px" viewBox="0 0 100 100"><g transform="translate(-0, -2)"><path d="M52.56,89.763 C53.358,90.144 53.11,89.871 53.443,90.427 C53.627,90.948 53.355,91.52 52.834,91.704 C51.149,92.301 49.408,92.75 47.818,92.989 C47.272,93.071 46.762,92.695 46.68,92.149 C46.598,91.603 46.974,91.094 47.52,91.011 C48.979,90.792 50.597,90.374 52.167,89.819 L52.56,89.763 z" fill="#1a3445"/><path d="M56.95,83.96 C57.818,84.137 57.511,83.933 57.968,84.391 C58.273,84.852 58.147,85.472 57.687,85.777 C53.573,88.501 46.15,90.423 42.765,89.222 C42.245,89.038 41.972,88.466 42.157,87.946 C42.342,87.425 42.913,87.153 43.434,87.338 C46.115,88.288 52.941,86.521 56.583,84.11 L56.95,83.96 z" fill="#1a3445"/><path d="M56.886,80.166 C57.753,80.342 57.446,80.138 57.904,80.597 C58.209,81.058 58.082,81.678 57.622,81.983 C53.426,84.762 46.121,86.767 42.765,85.577 C42.245,85.392 41.972,84.821 42.157,84.3 C42.342,83.78 42.913,83.507 43.434,83.692 C46.071,84.628 52.793,82.782 56.518,80.315 L56.886,80.166 z" fill="#1a3445"/><path d="M56.95,76.224 C57.818,76.401 57.511,76.197 57.968,76.655 C58.273,77.116 58.147,77.736 57.687,78.041 C53.413,80.871 46.097,82.978 42.765,81.796 C42.245,81.612 41.972,81.04 42.157,80.52 C42.342,79.999 42.913,79.727 43.434,79.911 C46.035,80.834 52.78,78.891 56.582,76.374 L56.95,76.224 z" fill="#1a3445"/><path d="M50,21 L52.147,21.108 C63.338,22.905 69.993,30.775 71,41.866 L71,41.867 C71,48.209 69.324,51.642 64.617,57.474 C64.481,57.642 64.481,57.642 64.345,57.811 C59.713,63.55 58.135,66.825 58.135,73.119 C58.036,73.605 58.15,73.414 57.846,73.719 L57.708,73.889 L57.59,73.974 C57.515,74.049 57.554,74.034 57.488,74.047 C53.411,77.043 47.839,79.223 42.765,77.743 L42.741,77.728 C42.696,77.72 42.718,77.73 42.68,77.692 C42.363,77.502 42.467,77.629 42.331,77.343 C42.108,77.12 42.192,77.261 42.119,76.897 C42.097,76.851 42.099,76.874 42.105,76.83 L42.099,76.801 L42.099,73.119 L42.099,73.118 C42.327,66.857 39.511,62.518 35.777,57.817 C35.639,57.649 35.639,57.649 35.5,57.481 C30.707,51.648 29,48.213 29,41.867 L29,41.867 C29.197,30.01 38.485,21.578 50,21 L50,21 z M50,23 C39.308,23.169 31.531,31.422 31,41.867 L31,41.867 C31,47.646 32.519,50.703 37.046,56.211 C37.184,56.379 37.184,56.379 37.322,56.548 C42.305,62.61 44.1,66.268 44.099,73.119 L44.099,73.119 L44.099,76.041 C48.407,76.694 52.697,75.043 56.154,72.549 C55.982,66.094 58.989,61.435 62.789,56.554 C62.925,56.386 62.925,56.386 63.061,56.218 C67.507,50.709 69,47.65 69,41.867 C68.821,31.142 60.413,23.523 50,23 z M50,55 L50.389,55.079 C51.015,55.705 50.872,55.365 51,56 L51,57 C51,57.553 50.552,58 50,58 C49.448,58 49,57.553 49,57 L49,56 C49,55.448 49.448,55 50,55 z M50,32 C50.552,32 51,32.448 51,33 L51,52 C51,52.553 50.552,53 50,53 C49.448,53 49,52.553 49,52 L49,33 C49,32.448 49.448,32 50,32 z" fill="#1a3445"/><path d="M73.506,54.508 L73.883,54.634 L80.811,58.634 C81.289,58.91 81.453,59.522 81.177,60 C80.901,60.479 80.289,60.642 79.811,60.366 L72.883,56.366 C72.404,56.09 72.241,55.479 72.517,55 C72.945,54.514 72.652,54.737 73.506,54.508 z" fill="#1a3445"/><path d="M26.494,54.508 C27.349,54.737 27.055,54.514 27.483,55 C27.76,55.479 27.596,56.09 27.117,56.366 L20.189,60.366 L19.813,60.493 C18.958,60.264 19.252,60.486 18.823,60 C18.547,59.522 18.711,58.91 19.189,58.634 L26.117,54.634 L26.494,54.508 z" fill="#1a3445"/><path d="M23,41 C23.552,41 24,41.448 24,42 C24,42.553 23.552,43 23,43 L15,43 C14.448,43 14,42.553 14,42 C14,41.448 14.448,41 15,41 L23,41 z" fill="#1a3445"/><path d="M85,41 C85.552,41 86,41.448 86,42 C86,42.553 85.552,43 85,43 L77,43 C76.448,43 76,42.553 76,42 C76,41.448 76.448,41 77,41 L85,41 z" fill="#1a3445"/><path d="M19.813,23.508 L20.189,23.634 L27.117,27.634 C27.596,27.91 27.76,28.522 27.483,29 C27.207,29.479 26.596,29.642 26.117,29.366 L19.189,25.366 C18.711,25.09 18.547,24.479 18.823,24 C19.252,23.514 18.958,23.737 19.813,23.508 z" fill="#1a3445"/><path d="M80.187,23.508 C81.042,23.737 80.748,23.514 81.177,24 C81.453,24.479 81.289,25.09 80.811,25.366 L73.883,29.366 C73.277,29.648 72.922,29.459 72.517,29 C72.241,28.522 72.404,27.91 72.883,27.634 L79.811,23.634 L80.187,23.508 L80.187,23.508 z" fill="#1a3445"/><path d="M32.376,10.697 C33.231,10.926 32.937,10.703 33.366,11.189 L37.366,18.118 C37.642,18.596 37.478,19.207 37,19.484 C36.522,19.76 35.91,19.596 35.634,19.118 L31.634,12.189 C31.358,11.711 31.522,11.1 32,10.823 L32.376,10.697 z" fill="#1a3445"/><path d="M67.624,10.697 L68,10.823 C68.478,11.1 68.642,11.711 68.366,12.189 L64.366,19.118 C64.09,19.596 63.478,19.76 63,19.484 C62.522,19.207 62.358,18.596 62.634,18.118 L66.634,11.189 C67.063,10.703 66.769,10.926 67.624,10.697 z" fill="#1a3445"/><path d="M50,6 L50.389,6.079 C51.015,6.705 50.872,6.365 51,7 L51,15 C51,15.553 50.552,16 50,16 C49.448,16 49,15.553 49,15 L49,7 C49,6.448 49.448,6 50,6 L50,6 z" fill="#1a3445"/><path d="M0,2 z" fill="#1a3445"/></g></svg>