<svg xmlns="http://www.w3.org/2000/svg" xmlns:xlink="http://www.w3.org/1999/xlink" version="1.1" x="0px" y="0px" viewBox="15 0 70 70" enable-background="new 0 0 100 100" xml:space="preserve"><g><polygon fill="none" points="70.207,44.353 78.238,48.98 50.08,65.238 22.068,48.985 30.092,44.353 50.137,55.941  "/><polygon fill="white" points="78.238,48.98 78.238,53.622 50.153,69.832 22.054,53.626 22.068,48.985 50.153,65.194  "/><polygon fill="white" points="55.072,37.732 66.539,44.353 68.35,45.426 70.207,44.353 56.293,36.319  "/><polygon fill="white" points="70.207,44.353 50.137,55.941 31.898,45.397 45.21,37.731 43.986,36.32 29.988,44.413 29.988,44.413 22.068,48.985    23.839,50.012 30.091,46.471 30.095,46.474 30.1,48.98 50.146,60.568 70.172,49.005 70.191,46.479 70.209,46.47 76.396,50.044    78.238,48.98  "/><polygon fill="white" points="50.137,11 42.113,15.632 43.948,16.687 45.789,15.628 50.137,13.118 54.47,15.62 56.199,16.747 58.159,15.632  "/><polygon fill="white" points="53.612,39.419 52.392,40.832 56.342,43.09 50.137,46.661 43.934,43.092 47.893,40.825 46.669,39.414    42.113,42.044 42.113,42.044 42.113,46.661 50.137,51.293 50.137,51.293 58.159,46.661 58.159,42.044  "/><polygon fill="white" points="50.149,43.425 58.159,34.161 58.159,15.632 50.098,20.217 42.113,15.632 42.113,34.161  "/></g></svg>