<svg xmlns:dc="http://purl.org/dc/elements/1.1/" xmlns:cc="http://creativecommons.org/ns#" xmlns:rdf="http://www.w3.org/1999/02/22-rdf-syntax-ns#" xmlns:svg="http://www.w3.org/2000/svg" xmlns="http://www.w3.org/2000/svg" xmlns:sodipodi="http://sodipodi.sourceforge.net/DTD/sodipodi-0.dtd" xmlns:inkscape="http://www.inkscape.org/namespaces/inkscape" viewBox="0 0 32 40.00000125" version="1.1" x="0px" y="0px"><g transform="translate(0,-1020.3622)"><path style="text-indent:0;text-transform:none;direction:ltr;block-progression:tb;baseline-shift:baseline;color:#000000;enable-background:accumulate;" d="m 30.5,1 c -2.854652,0 -5.466309,0.59405 -7.84375,1.59375 -0.732826,0.3309056 -1.395106,0.7100876 -2,1.0625 -2.974008,1.716875 -5.495144,4.0155735 -7.5625,6.5625 -0.442418,-0.188555 -0.905921,-0.3171936 -1.375,-0.375 -1.708943,-0.2107 -3.5523118,0.4148 -5.28125,1.625 -2.3052509,1.6135 -4.4617163,4.27555 -5.90625,7.65625 -0.20186216,0.412071 0.43827207,0.898573 0.78125,0.59375 2.0923859,-1.623 3.7228185,-2.4912 4.875,-2.6875 1.0642682,-0.18123 1.7130018,0.119736 2.25,0.9375 C 8.388465,18.083915 8.3285595,18.197605 8.28125,18.3125 8.194802,18.495366 8.233916,18.730055 8.375,18.875 l 4.75,4.71875 c 0.132913,0.13915 0.350234,0.190285 0.53125,0.125 0.114108,-0.04699 0.229278,-0.107563 0.34375,-0.15625 0.839873,0.541356 1.121186,1.171541 0.9375,2.25 -0.196246,1.1522 -1.033294,2.7826 -2.65625,4.875 -0.219139,0.340682 0.174086,0.864982 0.5625,0.75 3.380663,-1.4446 6.073992,-3.5698 7.6875,-5.875 1.535536,-2.193802 2.103226,-4.586249 1.25,-6.625 2.91289,-2.331961 5.512118,-5.261002 7.28125,-8.75 C 29.330543,9.7232352 29.317057,9.6019044 29.46875,9.28125 30.438968,6.9296571 30.99999,4.3068055 31,1.5 30.999974,1.2382078 30.761792,1.0000261 30.5,1 z M 29.9375,2.0625 C 29.872251,4.2667951 29.450771,6.3418208 28.75,8.25 l -5,-5 c 1.911127,-0.7111495 3.977299,-1.120596 6.1875,-1.1875 z m -7.1875,1.59375 5.625,5.625 -0.4375,0.84375 -6.0625,-6 C 22.381456,3.8325975 22.448881,3.8202794 22.75,3.65625 z m -1.78125,1 6.46875,6.375 c -2.830401,4.771453 -7.299899,8.365436 -11.78125,10.65625 -0.580619,0.290463 -1.16634,0.577289 -1.78125,0.84375 -0.100865,0.04394 -0.211884,0.08243 -0.3125,0.125 l -4.21875,-4.25 c 2.171923,-5.123512 6.1148,-10.4944493 11.625,-13.75 z m -0.5,4.84375 c -0.569578,0 -1.13277,0.22655 -1.5625,0.65625 -0.85946,0.8595 -0.859418,2.2655 0,3.125 0.859418,0.8594 2.26554,0.8595 3.125,0 0.85946,-0.8594 0.859418,-2.2656 0,-3.125 C 21.601542,9.72655 21.038328,9.5 20.46875,9.5 z m 0,1 c 0.311562,0 0.636351,0.1051 0.875,0.34375 0.477297,0.4773 0.477283,1.24145 0,1.71875 -0.477297,0.4773 -1.272703,0.4773 -1.75,0 -0.477297,-0.4773 -0.477297,-1.24145 0,-1.71875 C 19.832391,10.6051 20.157188,10.5 20.46875,10.5 z m -9.78125,0.34375 c 0.563142,0.0073 1.105905,0.1466 1.625,0.3125 -0.388539,0.533307 -0.756648,1.113338 -1.125,1.6875 -0.241783,0.368617 -0.494814,0.751967 -0.71875,1.125 C 10.132308,14.541336 9.8117331,15.139854 9.5,15.75 9.2828708,16.167914 9.1010643,16.582241 8.90625,17 8.890322,17.03455 8.859592,17.05908 8.84375,17.09375 8.1183895,16.31415 7.1950438,15.8643 6.03125,16.0625 c -1.0029276,0.1708 -2.1958545,0.81315 -3.5,1.65625 1.2874967,-2.2982 2.8033578,-4.2718 4.46875,-5.4375 1.0574657,-0.7401 2.1189101,-1.22435 3.125,-1.40625 0.195778,-0.0354 0.374786,-0.03369 0.5625,-0.03125 z m -3.25,8.59375 -0.34375,0.59375 -0.90625,1.6875 -0.15625,0.3125 0.25,0.28125 L 9.75,25.75 10.03125,26 l 0.3125,-0.1875 1.625,-0.9375 0.5625,-0.34375 -0.46875,-0.4375 -4.15625,-4.1875 z m 13.40625,0.25 c 0.503374,1.5806 0.190269,3.4334 -1.125,5.3125 -1.16664,1.6668 -3.136575,3.18065 -5.4375,4.46875 0.846071,-1.3076 1.485081,-2.4951 1.65625,-3.5 0.196833,-1.1557 -0.263249,-2.0882 -1.03125,-2.8125 0.53988,-0.249135 1.083499,-0.495058 1.625,-0.78125 0.5227,-0.272187 1.006006,-0.553575 1.5,-0.84375 0.947884,-0.564325 1.898694,-1.166443 2.8125,-1.84375 z m -13.1875,1.40625 3.25,3.21875 L 10.1875,24.75 7.25,21.84375 z m -1.875,2.75 -2.375,2.375 0.5,0.46875 L 6.25,24.3125 z M 6.75,24.78125 2.9375,28.59375 3.40625,29.0625 7.21875,25.25 z M 7.6875,25.75 4.84375,28.59375 5.3125,29.0625 8.15625,26.21875 z M 2.9375,26.6875 2.46875,27.15625 2.9375,27.625 3.40625,27.15625 z M 2.46875,29.0625 2,29.53125 2.46875,30 2.9375,29.53125 z m 1.90625,0 L 3.90625,29.53125 4.375,30 4.84375,29.53125 z" transform="translate(-5e-7,1020.3622)" fill="#000000" fill-opacity="1" stroke="none" marker="none" visibility="visible" display="inline" overflow="visible"/></g><text x="0" y="47.000001" fill="#000000" font-size="5px" font-weight="bold" font-family="'Helvetica Neue', Helvetica, Arial-Unicode, Arial, Sans-serif">Created by Chameleon Design</text><text x="0" y="52.000001" fill="#000000" font-size="5px" font-weight="bold" font-family="'Helvetica Neue', Helvetica, Arial-Unicode, Arial, Sans-serif">from the Noun Project</text></svg>